<svg version="1.1" id="Layer_1" xmlns="http://www.w3.org/2000/svg" xmlns:xlink="http://www.w3.org/1999/xlink" x="0px" y="0px" viewBox="0 0 204.7 55.9" style="enable-background:new 0 0 204.7 55.9;" xml:space="preserve">
 <style type="text/css">
  .st0{fill:#003595;}
 </style>
 <g>
  <g>
   <path class="st0" d="M203.9,25.1c-0.5-1.9-1.3-3.7-2.5-5.2c-1.1-1.5-2.7-2.7-4.5-3.7c-1.8-1-4.1-1.4-6.7-1.4
			c-1.4,0-2.7,0.2-3.9,0.6c-1.2,0.4-2.3,0.8-3.3,1.4c-1,0.6-2,1.3-2.7,2.1c-0.3,0.3-0.6,0.6-0.8,0.9v-4h-13.3v38.9H180v-21
			c0-1,0.1-2,0.4-2.9c0.3-0.9,0.6-1.7,1.1-2.4c0.5-0.7,1.1-1.2,1.8-1.6c0.7-0.4,1.6-0.6,2.6-0.6c1,0,1.8,0.2,2.4,0.6
			c0.6,0.4,1.1,0.9,1.5,1.5c0.4,0.7,0.6,1.4,0.8,2.3c0.2,0.9,0.3,1.9,0.3,2.9v21.2h13.8V30.8C204.7,28.9,204.4,27,203.9,25.1">
   </path>
   <path class="st0" d="M148.5,35.3c0,4.6-3.7,8.2-8.3,8.2c-4.6,0-8.3-3.7-8.3-8.2c0-4.6,3.7-8.2,8.3-8.2
			C144.8,27,148.5,30.7,148.5,35.3 M140.2,14.6c-11.4,0-20.7,9.2-20.7,20.6c0,11.4,9.3,20.6,20.7,20.6c11.4,0,20.7-9.2,20.7-20.6
			C160.9,23.9,151.7,14.6,140.2,14.6">
   </path>
   <path class="st0" d="M102.8,43.5c-4.6,0-8.3-3.7-8.3-8.2c0-4.6,3.7-8.2,8.3-8.2c2.9,0,5.4,1.5,6.9,3.7l8.2-9.5
			c-3.8-4.1-9.2-6.6-15.1-6.6c-11.4,0-20.7,9.2-20.7,20.6c0,11.4,9.3,20.6,20.7,20.6c5.9,0,11.3-2.5,15.1-6.5l-8.1-9.8
			C108.3,42,105.7,43.5,102.8,43.5">
   </path>
   <path class="st0" d="M23,0L0,54.7h15.5l3.9-10.5h19.8l4.2,10.5h15.8L36.4,0H23z M35.2,32.6H23.6l5.9-15.8L35.2,32.6z">
   </path>
   <rect x="63" class="st0" width="13.9" height="54.7">
   </rect>
  </g>
 </g>
</svg>