<?xml version="1.0" encoding="UTF-8"?><svg id="a" xmlns="http://www.w3.org/2000/svg" viewBox="0 0 1873.42 313.48"><path d="M156.74,313.48H0l6.6-19.8V20.21L0,0h64.76l-6.19,20.21v235.11l6.19,5.77h80.02l21.45-5.77-9.49,58.16ZM351.42,20.21v267.28l-26.4,25.99h-104.77l-25.57-25.99V20.21l-6.6-20.21h64.76l-6.6,20.21v235.11l6.19,5.77h40.42l6.19-5.77V20.21l-6.6-20.21h65.58l-6.6,20.21ZM516.82,313.48l4.54-13.61-47.43-114.67-26.4,45.78v62.28l6.6,20.21h-64.76l6.6-20.21V20.21l-6.6-20.21h64.76l-6.6,20.21v112.19l69.3-123.33-4.12-9.07h73.42l-19.8,25.16-59.4,102.71,66,160.87,18.97,24.75h-75.07ZM611.27,313.48l6.6-20.21V19.8l-6.6-19.8h156.74l9.49,57.75-21.45-6.19h-80.43l-6.19,6.19v64.76l6.19,6.19h26.4l20.21-6.6v65.58l-20.21-6.6h-26.4l-6.19,5.77v67.65l6.19,6.19h80.43l21.45-6.19-9.49,58.98h-156.74ZM898.35,0h136.94l26.4,25.57v102.29l-26.81,25.99,26.81,26.4v107.24l-26.4,25.99h-136.94l6.6-20.21V19.8l-6.6-19.8ZM956.92,122.09l6.19,5.77h40.01l6.19-5.77V57.75l-6.19-6.19h-40.01l-6.19,6.19v64.35ZM1003.12,180.25h-40.01l-6.19,6.19v68.06l6.19,6.19h40.01l6.19-6.19v-68.06l-6.19-6.19ZM1097.16,313.48l6.6-19.8V20.21l-6.6-20.21h136.94l26.4,25.57v142.72l-26.4,26.4,22.69,97.76,8.25,21.04h-64.76l4.54-19.39-22.27-94.46-4.12-4.95h-16.91l-6.19,6.19v92.81l6.6,19.8h-64.76ZM1201.92,142.72l6.19-5.77V58.57l-6.19-5.77h-40.42l-6.19,5.77v78.37l6.19,5.77h40.42ZM1407.75,293.68l5.77,19.8h-63.93l6.6-19.8v-89.51l-63.93-181.08-15.26-23.1h77.13l-7.42,12.37,35.06,115.08,35.06-115.08-7.42-12.37h77.13l-15.26,23.1-63.52,181.08v89.51ZM1661,313.48h-65.58l4.54-12.37-11.55-47.85-6.19-6.19h-51.56l-6.19,6.19-11.55,47.85,4.54,12.37h-65.58l10.31-21.04,64.35-274.3-5.77-18.15h71.36l-5.77,18.15,64.35,274.3,10.31,21.04ZM1541.38,194.28h30.52l4.95-4.54-20.21-100.23-20.21,100.23,4.95,4.54ZM1745.14,313.48h-64.76l6.6-19.8V20.21l-6.6-20.21h58.16l75.89,190.98V20.21l-6.6-20.21h65.58l-6.6,20.21v273.47l6.6,19.8h-58.98l-75.89-190.56v170.76l6.6,19.8Z" fill="#795744" isolation="isolate"/></svg>