<?xml version="1.0" encoding="UTF-8"?>
<svg xmlns="http://www.w3.org/2000/svg" viewBox="0 0 400 100">
  <!-- Standardized container: 400×100px, aspect ratio 5.90:1 -->
  <!-- Padding: 20px horizontal, 20px vertical -->
  <g transform="translate(80.00, 20.00) scale(0.6000)">
    
  <!-- Standardized container: 400×100px, aspect ratio 5.90:1 -->
  <!-- Padding: 20px horizontal, 20px vertical -->
  <g transform="translate(22.84, 35.00) scale(0.7086)">
    <defs><style>.cls-1{fill:#024;}</style></defs><path class="cls-1" d="M105.29,52.4c0,3.14-2.53,5.68-5.67,5.68h-9.56c-3.15,0-5.7-2.54-5.7-5.68v-19.54c0-3.14,2.55-5.67,5.7-5.67h9.56c3.14,0,5.67,2.53,5.67,5.67v19.54ZM98.39.74l-8.36.05c-13.63.52-24.56,11.43-25.04,25.05l.06,35.2c1.22,12.92,11.86,23.08,24.99,23.58v.05h8.36c14.43,0,26.1-11.69,26.1-26.1v-31.75c0-14.41-11.67-26.09-26.1-26.09"/><path class="cls-1" d="M348.46,52.4c0,3.14-2.54,5.68-5.67,5.68h-9.57c-3.14,0-5.68-2.54-5.68-5.68v-19.54c0-3.14,2.54-5.67,5.68-5.67h9.57c3.14,0,5.67,2.53,5.67,5.67v19.54ZM341.56.74l-8.37.05c-13.62.52-24.55,11.43-25.06,25.05l.08,35.2c1.21,12.92,11.86,23.08,24.98,23.58v.05h8.36c14.43,0,26.11-11.69,26.11-26.1v-31.75c0-14.41-11.68-26.09-26.11-26.09"/><path class="cls-1" d="M24.57.79C11.21,1.3.48,12.22,0,25.84l.07,35.2c1.18,12.92,11.64,23.07,24.5,23.57v.05h8.21c14.12,0,25.57-11.69,25.57-26.1v-12.95l-16.85-.17v6.79c0,3.24-2.59,5.85-5.79,5.85h-9.77c-3.18,0-5.77-2.61-5.77-5.85v-20.17c0-3.24,2.59-5.87,5.77-5.87h9.77c3.2,0,5.79,2.63,5.79,5.87v7.65l16.85.15V1.96h-12.22c-1.97,1.65-3.28,2.47-6.73,1.49-3.45-1-6.71-2.66-14.83-2.66"/><path class="cls-1" d="M277.59,33.22h-11.58v-8.36h11.58c2.29.01,4.16,1.86,4.16,4.17s-1.87,4.19-4.16,4.19h0ZM277.59,57.34h0s-11.58.01-11.58.01v-8.37h11.58c2.29,0,4.16,1.87,4.16,4.18s-1.87,4.18-4.16,4.18h0ZM302.28,25.47c0-13.65-11.05-24.71-24.7-24.71l-5.26.07h-67.27v23.29c3.85,0,5.85,1.91,4.86,5.26l-7.92,23.82-7.58-22.94c-.45-3.21,1.7-6.15,6.28-6.15V.82h-32.55v23.29c2.61.99,6.38,1.28,4.62,6.66l-8.14,24.65-8.11-24.42c-1-3.68,2.75-6.89,6.79-6.89V.82h-36.77v23.29c4.84.5,10.71,3.63,11.84,7.86l16.87,50.97h16.23l10.18-30.71,10.01,30.71h16.49l17.59-51.89c1.84-5.37,5.06-6.94,10.96-6.94,6.64,0,9.36,1.97,9.36,8.5v17.72c0,6.89-3.46,7.76-8.61,7.76h-2.96v24.96h43.08c13.64,0,24.7-11.07,24.7-24.72,0-6.3-3.07-12.08-6.99-16.46,3.9-4.37,6.99-10.1,6.99-16.4"/><path class="cls-1" d="M425.39,58.09v24.86h-41.86v-24.86h4.08c9.21,0,9.21-6.65,6.63-10.47l-15.38-19.44c-3.08-3.68-4.19-3.81-7.39-3.81h-1.85V.74h36.93v23.62h-3.2c-2.72-.12-4.91.62-2.46,3.45l7.14,8.37h1.1l7.02-8.49c1.98-2.59,1-3.32-1.47-3.32h-4.43V.74h32.61v23.62h-4.31c-1.84,0-3.32.73-5.04,2.83-1.72,2.1-16.86,21.06-16.86,21.06-2.83,3.43-1.59,9.84,8.75,9.84"/><path class="cls-1" d="M486.71,31.25h11.4V.74h-13.53c0,1.71-1.14,2.05-3.94,2.05s-3.96-.89-5.58-1.64c-1.84-.87-5.41-1.14-7.22-1.14s-22.14,1.96-22.14,23.63,17.4,24.77,22.81,26.09c5.4,1.31,10.99,3.78,9.35,7.39-1.64,3.62-12.13.16-14.61-1.48-2.47-1.63-5-4.07-5-4.07h-13.67v31.39h10.94c.66-2.05,2.81-3.52,4.94-3.52s4.75,1.31,6.4,1.96c1.64.66,6.08,2.3,11.16,2.3s21.98-3.45,21.98-25.76-23.3-24.45-25.11-24.94c-1.82-.49-9.18-1.96-8.36-5.91.81-3.93,9.52-4.28,15.75.67,2.78,2.22,4.42,3.52,4.42,3.52"/>
  </g>

  </g>
</svg>