<?xml version="1.0" encoding="UTF-8"?>
<svg xmlns="http://www.w3.org/2000/svg" viewBox="0 0 400 100">
  <!-- Standardized container: 400×100px, aspect ratio 4.41:1 -->
  <!-- Padding: 20px horizontal, 20px vertical -->
  <g transform="translate(80.00, 20.00) scale(0.6000)">
    
  <!-- Standardized container: 400×100px, aspect ratio 4.41:1 -->
  <!-- Padding: 20px horizontal, 20px vertical -->
  <g transform="translate(67.70, 20.00) scale(0.0933)">
    
<title>Ferrari Wordmark logo - Brandlogos.net</title><g id="uuid-595982c4-5dda-4c52-ae26-e99aff1fbaca"><g id="uuid-6450e89a-9a3c-4cc1-8f88-eead3ed897ed"><path id="uuid-6fec99ce-0f92-4858-8989-2c41321fdaca" d="M1742.1,318.96v-39.76c0-90.35,45.67-108.02,179.05-108.67,122.74.65,166.1,16.03,166.1,93.93v300.63h45.33v67.75h-299.82c-63.17,0-104.4-43.37-104.4-96.72v-60.89c0-52.53,26.83-98.35,120.77-98.85h117.18v-91.49c0-47.79-3.28-53.51-51.21-53.51h-.5c-57.44,0-61.2,7.53-61.2,53.51v34.04h-111.31M1881.23,426.82c-23.56,0-37.48,18.98-37.48,42.54v58.09c0,23.41,9.99,42.06,37.48,42.39h42.22c23.24,0,42.23-7.2,42.23-42.39l.32-100.64h-84.78Z"/><path id="uuid-d54af9d1-44cd-4540-a89c-984826814e09" d="M1456.95,283.78v-105.07h-167.25v62.52h44.6v323.71h-44.6v67.93h209.49v-67.93h-42.23v-173.46c0-16.19,98.61-140.73,98.61-126.35v172.33h115.88v-193.92c0-44.35-28.98-72.98-81.84-72.98-62.85,0-105.32,79.03-132.65,113.23"/><path id="uuid-bd5cbcb8-5870-4e0c-ba9d-698eabb267d4" d="M2790.17,564.62V178.71h-170.7v62.52h47.8v323.39h-47.8v68.24h215.54v-68.24h-44.84"/><path id="uuid-9e33e866-727c-4466-8c74-d907594d0717" d="M1026.61,283.78v-105.07h-167.25v62.52h44.6v323.71h-44.6v67.93h209.32v-67.93h-42.06v-173.46c0-16.19,98.52-140.73,98.52-126.35v172.33h115.79v-193.92c0-44.35-28.81-72.98-81.74-72.98-62.69,0-105.23,79.03-132.56,113.23"/><path id="uuid-a21c715c-d33b-4532-a676-0d9198ecd08b" d="M795.36,484.1h-117.34v34.04c0,46.16-7.69,48.12-64.89,48.76h-.82c-65.55.32-61.86-6.21-61.13-48.76v-80.69h244.17v-175.27c0-63.51-47.95-90.18-174.45-90.66h-18.16c-136.57.65-172.9,31.74-172.9,110.31v256.6c0,86.4,51.05,100.98,175.43,104.41h13.57c135.76-3.12,176.51-12.45,176.51-93.13v-65.62M552.51,268.72c0-23.88,7.2-35.68,34.53-36.01h51.47c21.28,0,33.14,9.5,33.14,26.51v131.42h-119.15v-121.92h.01Z" style="fill-rule:evenodd;"/><path id="uuid-9dffc297-e54f-4f2a-afc1-17bd0a8d022f" d="M2345.36,283.78v-105.07h-167.42v62.52h44.52v323.71h-44.52v67.93h209.48v-67.93h-42.05v-173.46c0-16.19,98.36-140.73,98.36-126.35v172.33h116.03v-193.92c0-44.35-29.15-72.98-82.18-72.98-62.5,0-105.06,79.03-132.21,113.23"/><path id="uuid-6ca8b1f0-94b2-4d21-b1dc-23f9df99e5bb" d="M283.53,412.09v-60.55h-65.21v213.57h113v67.75H0v-67.75h88.13V85.44H18.9V2.95h2580.59v82.49H218.31v192.61h65.21v-56.95h75.04v190.99h-75.04"/><path id="uuid-800b0ee9-1aa3-4dd0-bd27-8121caeada18" d="M2665.45,0h123.06v81.18h-123.06V0Z" style="fill-rule:evenodd;"/></g></g>
  </g>

  </g>
</svg>