<?xml version="1.0" encoding="UTF-8"?>
<svg xmlns="http://www.w3.org/2000/svg" viewBox="0 0 400 110">
  <!-- Standardized container: 400×110px, aspect ratio 3.64:1 -->
  <!-- Padding: 20px horizontal, 20px vertical -->
  <g transform="translate(72.73, 20.00) scale(0.6364)">
    
  <!-- Standardized container: 400×110px, aspect ratio 3.64:1 -->
  <!-- Padding: 20px horizontal, 20px vertical -->
  <g transform="translate(72.73, 20.00) scale(3.1818)">
    
		<path d="M79.7,9.9c-0.2-0.8-0.5-1.4-1-2c-0.5-0.6-1.1-1.1-1.8-1.4c-0.7-0.4-1.6-0.5-2.6-0.5c-1,0-2,0.3-2.8,0.8 c-0.4,0.2-0.8,0.5-1.1,0.8c-0.1,0.1-0.2,0.3-0.3,0.4V6.3H65v15.3h5.3v-8.3c0-0.4,0-0.8,0.2-1.1c0.2-0.7,0.6-1.2,1.2-1.6 c0.3-0.2,0.6-0.2,1-0.2s0.7,0.1,1,0.2s0.4,0.3,0.6,0.6c0.1,0.3,0.3,0.5,0.3,0.9c0.1,0.4,0.1,0.8,0.1,1.1v8.3H80v-9.4 C80,11.4,79.9,10.6,79.7,9.9z M58.1,13.9c0,0.9-0.3,1.7-0.9,2.3c-0.6,0.6-1.4,1-2.3,1s-1.7-0.3-2.3-1c-0.6-0.6-0.9-1.4-0.9-2.3 c0-0.9,0.3-1.7,0.9-2.3c0.6-0.6,1.4-1,2.3-1s1.7,0.3,2.3,1C57.7,12.2,58.1,13,58.1,13.9z M54.8,5.7c-1.1,0-2.1,0.2-3.1,0.6 c-1,0.4-1.9,1-2.6,1.8c-0.8,0.8-1.3,1.6-1.8,2.6c-0.4,1-0.6,2-0.6,3.1s0.2,2.1,0.6,3.1c0.4,1,1,1.9,1.8,2.6c0.8,0.8,1.6,1.4,2.6,1.8 c1,0.4,2,0.6,3.1,0.6s2.1-0.2,3.1-0.6c1-0.4,1.9-1,2.6-1.8c0.8-0.8,1.3-1.6,1.8-2.6c0.4-1,0.6-2,0.6-3.1c0-1.1-0.2-2.1-0.6-3.1 c-0.4-1-1-1.9-1.8-2.6c-0.8-0.8-1.6-1.4-2.6-1.8C56.9,6,55.9,5.7,54.8,5.7z M40.2,17.1c-0.6,0-1.1-0.1-1.6-0.4 c-0.5-0.3-0.9-0.7-1.2-1.2c-0.3-0.5-0.4-1-0.5-1.6c0-0.6,0.1-1.1,0.4-1.6c0.3-0.5,0.6-0.9,1.1-1.2c0.5-0.3,1-0.5,1.6-0.5 c0.6,0,1.1,0.1,1.6,0.3s0.9,0.6,1.2,1.1l3.2-3.7c-0.8-0.8-1.7-1.5-2.7-1.9c-1-0.4-2.1-0.7-3.2-0.7c-2.1,0-4.2,0.9-5.7,2.4 c-1.5,1.5-2.4,3.6-2.4,5.7c0,2.2,0.9,4.2,2.4,5.7c1.5,1.5,3.6,2.4,5.7,2.4c2.3,0,4.4-1,5.9-2.5l-3.2-3.8c-0.3,0.5-0.7,0.8-1.2,1.1 C41.3,16.9,40.7,17.1,40.2,17.1z M9,0L0,21.5h6.1l1.6-4.1h7.7l1.6,4.1h6.1L14.2,0H9z M13.8,12.8H9.2l2.3-6.2L13.8,12.8z M24.6,0h5.4 v21.5h-5.4V0z"/>

  </g>

  </g>
</svg>